<svg xmlns="http://www.w3.org/2000/svg" xmlns:xlink="http://www.w3.org/1999/xlink" width="1017.565" height="575.474" viewBox="0 0 1017.565 575.474"><defs><style>.a{fill:#fff;}.b{fill:url(#a);}.c,.p,.q,.s,.t,.u{fill:none;}.c{stroke:#707070;}.c,.k{opacity:0.47;}.d{fill:url(#c);}.e{fill:url(#d);}.f{fill:url(#e);}.g,.v{isolation:isolate;}.g{fill:url(#h);}.h{fill:url(#i);}.i{fill:#fabaa1;}.j{clip-path:url(#p);}.k{fill:url(#q);}.l{clip-path:url(#s);}.m{fill:url(#t);}.n{fill:url(#u);}.o{fill:url(#ac);}.p{stroke:#99d8b5;}.p,.q,.t,.u{stroke-linecap:round;}.p,.q,.s{stroke-width:3px;}.q{stroke:#52c280;}.r{opacity:0.529;clip-path:url(#ag);}.s{stroke:#f06e2e;}.t{stroke:#fabaa1;stroke-width:4px;}.u{stroke:#fef5e6;stroke-width:5px;}.w{fill:#db1111;opacity:0.442;}.x{filter:url(#bf);}.y{filter:url(#bc);}.z{filter:url(#ba);}.aa{filter:url(#ay);}.ab{filter:url(#ap);}.ac{filter:url(#an);}.ad{filter:url(#ad);}.ae{filter:url(#aa);}.af{filter:url(#y);}.ag{filter:url(#w);}.ah{filter:url(#n);}.ai{filter:url(#l);}</style><linearGradient id="a" x1="0.5" x2="0.5" y2="1" gradientUnits="objectBoundingBox"><stop offset="0" stop-color="#fdf3ee"/><stop offset="1" stop-color="#fabaa1"/></linearGradient><radialGradient id="c" cx="0.5" cy="0.32" r="0.749" gradientTransform="matrix(-0.59, 0.807, -0.483, -0.353, 0.949, 0.029)" gradientUnits="objectBoundingBox"><stop offset="0" stop-color="#cbebdc"/><stop offset="1" stop-color="#cbebdc" stop-opacity="0"/></radialGradient><linearGradient id="d" x1="0.15" y1="0.284" x2="1" y2="0.349" gradientUnits="objectBoundingBox"><stop offset="0" stop-color="#fff"/><stop offset="1" stop-color="#fff" stop-opacity="0"/></linearGradient><linearGradient id="e" x1="0.664" y1="0.03" x2="0.327" y2="0.823" gradientUnits="objectBoundingBox"><stop offset="0" stop-color="#f5f8fc"/><stop offset="1" stop-color="#f7f9fc" stop-opacity="0"/></linearGradient><linearGradient id="h" x1="0.819" y1="0.796" x2="0.573" y2="0.956" gradientUnits="objectBoundingBox"><stop offset="0" stop-color="#cbebdc"/><stop offset="1" stop-color="#52c280"/></linearGradient><linearGradient id="i" x1="0.5" x2="0.5" y2="1" gradientUnits="objectBoundingBox"><stop offset="0" stop-color="#f06824"/><stop offset="1" stop-color="#fabaa1"/></linearGradient><filter id="l" x="540.372" y="76.578" width="95.002" height="93.693" filterUnits="userSpaceOnUse"><feOffset dy="3" input="SourceAlpha"/><feGaussianBlur stdDeviation="3" result="m"/><feFlood flood-opacity="0.031"/><feComposite operator="in" in2="m"/><feComposite in="SourceGraphic"/></filter><filter id="n" x="548.752" y="84.786" width="78.11" height="77.088" filterUnits="userSpaceOnUse"><feOffset dy="3" input="SourceAlpha"/><feGaussianBlur stdDeviation="3" result="o"/><feFlood flood-opacity="0.059"/><feComposite operator="in" in2="o"/><feComposite in="SourceGraphic"/></filter><clipPath id="p"><path class="a" d="M21.38,0A21.38,21.38,0,1,1,0,21.38,21.38,21.38,0,0,1,21.38,0Z" transform="translate(1311.01 362.08) rotate(30)"/></clipPath><linearGradient id="q" x1="0.41" y1="1.072" x2="0.62" y2="0.118" gradientUnits="objectBoundingBox"><stop offset="0" stop-color="#fff"/><stop offset="1" stop-color="#f7c062"/></linearGradient><clipPath id="s"><path class="b" d="M97.64,273.654A209.726,209.726,0,0,1,16,226.522L0,211.592S53.3,67.22,177.668,21.122L185.134,8.19a5.147,5.147,0,1,1,3.585,2.07l-7.575,13.119c28.032,138.678-62.574,256.671-62.574,256.671Z" transform="translate(0 0)"/></clipPath><linearGradient id="t" x1="0.301" y1="0.859" x2="0.749" y2="0.137" xlink:href="#i"/><linearGradient id="u" x1="1.128" y1="-0.377" x2="0.5" y2="1" gradientUnits="objectBoundingBox"><stop offset="0" stop-color="#fefbf4"/><stop offset="1" stop-color="#fbe1b5"/></linearGradient><filter id="w" x="749.382" y="204.292" width="27.53" height="50.635" filterUnits="userSpaceOnUse"><feOffset dy="3" input="SourceAlpha"/><feGaussianBlur stdDeviation="1.5" result="x"/><feFlood flood-opacity="0.161"/><feComposite operator="in" in2="x"/><feComposite in="SourceGraphic"/></filter><filter id="y" x="723.35" y="211.76" width="35.666" height="47.519" filterUnits="userSpaceOnUse"><feOffset dy="3" input="SourceAlpha"/><feGaussianBlur stdDeviation="3" result="z"/><feFlood flood-opacity="0.161"/><feComposite operator="in" in2="z"/><feComposite in="SourceGraphic"/></filter><filter id="aa" x="702.235" y="220.635" width="34.902" height="38.5" filterUnits="userSpaceOnUse"><feOffset dy="3" input="SourceAlpha"/><feGaussianBlur stdDeviation="3" result="ab"/><feFlood flood-opacity="0.161"/><feComposite operator="in" in2="ab"/><feComposite in="SourceGraphic"/></filter><linearGradient id="ac" x1="1.091" y1="-0.088" x2="0.573" y2="0.956" xlink:href="#h"/><filter id="ad" x="778.338" y="242.559" width="41.727" height="38.627" filterUnits="userSpaceOnUse"><feOffset dy="3" input="SourceAlpha"/><feGaussianBlur stdDeviation="3" result="ae"/><feFlood flood-opacity="0.161"/><feComposite operator="in" in2="ae"/><feComposite in="SourceGraphic"/></filter><clipPath id="ag"><rect class="c" width="102.448" height="69.121" rx="12" transform="translate(0 0)"/></clipPath><filter id="an" x="540.372" y="76.578" width="95.002" height="93.693" filterUnits="userSpaceOnUse"><feOffset dy="3" input="SourceAlpha"/><feGaussianBlur stdDeviation="3" result="ao"/><feFlood flood-opacity="0.031"/><feComposite operator="in" in2="ao"/><feComposite in="SourceGraphic"/></filter><filter id="ap" x="548.752" y="84.786" width="78.11" height="77.088" filterUnits="userSpaceOnUse"><feOffset dy="3" input="SourceAlpha"/><feGaussianBlur stdDeviation="3" result="aq"/><feFlood flood-opacity="0.059"/><feComposite operator="in" in2="aq"/><feComposite in="SourceGraphic"/></filter><filter id="ay" x="749.382" y="204.292" width="27.53" height="50.635" filterUnits="userSpaceOnUse"><feOffset dy="3" input="SourceAlpha"/><feGaussianBlur stdDeviation="1.5" result="az"/><feFlood flood-opacity="0.161"/><feComposite operator="in" in2="az"/><feComposite in="SourceGraphic"/></filter><filter id="ba" x="723.35" y="211.76" width="35.666" height="47.519" filterUnits="userSpaceOnUse"><feOffset dy="3" input="SourceAlpha"/><feGaussianBlur stdDeviation="3" result="bb"/><feFlood flood-opacity="0.161"/><feComposite operator="in" in2="bb"/><feComposite in="SourceGraphic"/></filter><filter id="bc" x="702.235" y="220.635" width="34.902" height="38.5" filterUnits="userSpaceOnUse"><feOffset dy="3" input="SourceAlpha"/><feGaussianBlur stdDeviation="3" result="bd"/><feFlood flood-opacity="0.161"/><feComposite operator="in" in2="bd"/><feComposite in="SourceGraphic"/></filter><filter id="bf" x="778.338" y="242.559" width="41.727" height="38.627" filterUnits="userSpaceOnUse"><feOffset dy="3" input="SourceAlpha"/><feGaussianBlur stdDeviation="3" result="bg"/><feFlood flood-opacity="0.161"/><feComposite operator="in" in2="bg"/><feComposite in="SourceGraphic"/></filter></defs><g transform="translate(-806.5 -197.526)"><g transform="translate(104.5 -6)"><path class="d" d="M5527.785,444.1s-11.875,27.222-53.765,34.677-40.741,109.156-108.406,65.411-60.241,84.866-152,29.7-70.835,185.571-70.835,185.571h888.714s158.55-150.649-39.506-229.842-80.427,125.169-186.334,83.612-44.946,36.5-151.661,0c-36.24-13.665-46.052,60.483-75.492,15.245-9.582-15.06-40.59-3.77-32.8-33.152s26.724-18.524,23.7-45.62-4.843-31.833,17.449-47.237C5643.235,445.773,5527.785,444.1,5527.785,444.1Z" transform="translate(-4372 2)"/><rect class="e" width="239" height="274" transform="translate(702 505)"/></g><path class="f" d="M-2009-15c133.653,0,242,108.347,242,242s-108.347,242-242,242-242-108.347-242-242S-2142.653-15-2009-15Z" transform="translate(3351.5 304)"/><g transform="translate(104.5 -6)"><path class="d" d="M5527.785,444.1s-11.875,27.222-53.765,34.677-40.741,109.156-108.406,65.411-60.241,84.866-152,29.7-70.835,185.571-70.835,185.571h888.714s158.55-150.649-39.506-229.842-80.427,125.169-186.334,83.612-44.946,36.5-151.661,0c-36.24-13.665-46.052,60.483-75.492,15.245-9.582-15.06-40.59-3.77-32.8-33.152s26.724-18.524,23.7-45.62-4.843-31.833,17.449-47.237C5643.235,445.773,5527.785,444.1,5527.785,444.1Z" transform="translate(-4372 2)"/><rect class="e" width="239" height="274" transform="translate(702 505)"/></g><g transform="matrix(0.985, 0.121, -0.134, 0.986, 147.257, -227.398)"><path class="g" d="M93.33,194.817h0a173.977,173.977,0,0,1-78.34,0l-.567-.131a16.977,16.977,0,0,1-13.1-14.938C-1.676,148.033-4.131,61.482,48.225,0h0c57.251,63.259,59.689,147.116,58.266,178.977A17.015,17.015,0,0,1,93.33,194.817Z" transform="translate(1289.422 349.617) rotate(30)"/><path class="h" d="M17.482,123.758c10.25-15.247,12-32.268,15.478-39.63,6.978-17.445,20.063-29.2,35.068-29.2C90.358,54.926,121,99.381,121,86.954,121,38.93,93.91,0,60.5,0S0,38.93,0,86.954a123.194,123.194,0,0,0,2.02,22.308C4.853,119.535,10.459,134.209,17.482,123.758Z" transform="translate(1201.917 384.342) rotate(30)"/><path class="h" d="M103.517,123.758c-10.25-15.247-12-32.268-15.48-39.63-6.976-17.445-20.061-29.2-35.066-29.2C30.641,54.926,0,99.381,0,86.954,0,38.93,27.087,0,60.5,0S121,38.93,121,86.954a123.194,123.194,0,0,1-2.02,22.308C116.146,119.535,110.538,134.209,103.517,123.758Z" transform="translate(1290.765 435.639) rotate(30)"/><path class="b" d="M97.64,273.654A209.726,209.726,0,0,1,16,226.522L0,211.592S53.3,67.22,177.668,21.122L185.134,8.19a5.147,5.147,0,1,1,3.585,2.07l-7.575,13.119c28.032,138.678-62.574,256.671-62.574,256.671Z" transform="translate(1191.132 279.482)"/><g class="ai" transform="matrix(1, -0.12, 0.14, 1, 715.82, 343.3)"><path class="i" d="M27.387,0A27.387,27.387,0,1,1,0,27.387,27.387,27.387,0,0,1,27.387,0Z" transform="matrix(0.79, 0.6, -0.61, 0.79, 582.76, 82.15)"/></g><g class="ah" transform="matrix(1, -0.12, 0.14, 1, 715.82, 343.3)"><path class="a" d="M21.38,0A21.38,21.38,0,1,1,0,21.38,21.38,21.38,0,0,1,21.38,0Z" transform="matrix(0.79, 0.6, -0.61, 0.79, 583.83, 90.51)"/></g><g class="j"><path class="k" d="M20.5,0A20.5,20.5,0,1,1,0,20.5,20.5,20.5,0,0,1,20.5,0Z" transform="translate(1299.835 383.552)"/></g><path class="h" d="M13.112,0c7.242,0,13.112,29.043,13.112,64.869s-5.87,64.869-13.112,64.869S0,100.7,0,64.869,5.87,0,13.112,0Z" transform="translate(1275.275 440.509) rotate(30)"/><g class="l" transform="translate(1191.132 279.482)"><ellipse class="m" cx="39.5" cy="40" rx="39.5" ry="40" transform="translate(138.214 -11.931)"/></g></g><g transform="matrix(0.94, 0, -0.059, 0.985, 182.746, 55.773)"><rect class="n" width="124" height="84" rx="12" transform="translate(1414 332)"/><g class="ag" transform="matrix(1.06, 0, 0.06, 1.02, 672.88, 143.94)"><rect class="h" width="17" height="42" rx="3" transform="matrix(0.94, 0, -0.06, 0.98, 756.36, 205.88)"/></g><g class="af" transform="matrix(1.06, 0, 0.06, 1.02, 672.88, 143.94)"><rect class="a" width="17" height="30" rx="3" transform="matrix(0.94, 0, -0.06, 0.98, 734.04, 217.7)"/></g><g class="ae" transform="matrix(1.06, 0, 0.06, 1.02, 672.88, 143.94)"><rect class="a" width="17" height="21" rx="3" transform="matrix(0.94, 0, -0.06, 0.98, 711.89, 226.57)"/></g><circle class="o" cx="22" cy="22" r="22" transform="translate(1516 384)"/><g class="ad" transform="matrix(1.06, 0, 0.06, 1.02, 672.88, 143.94)"><path class="a" d="M7,20V12H0L11.5,0,23,12H16v8Z" transform="matrix(0.94, 0, -0.06, 0.98, 787.64, 248.23)"/></g></g><g transform="matrix(0.94, 0, -0.059, 0.985, 153.14, 55.098)"><rect class="n" width="102.448" height="69.121" rx="12" transform="translate(1080.068 176.272)"/><line class="p" x2="26.46" transform="translate(1094.454 191.233)"/><line class="q" x2="16.537" transform="translate(1094.454 204.463)"/><g class="r" transform="translate(1080.068 176.272)"><g transform="translate(-1.705 39.587)"><path class="s" d="M7165.042-533.012s14.544,6.99,17.964,10.357,6.27,4,12.362-4.645,5.542-17.814,20.848-3.438,20.318-16.252,30.536-5.734c10.912,9.129,12.04,18.681,23.933,10.5" transform="translate(-7165.042 538.719)"/><path class="t" d="M7165.042-532.913s14.544,6.99,17.964,10.357,6.27,4,12.362-4.645,5.542-17.814,20.848-3.438" transform="translate(-7165.042 538.62)"/><path class="u" d="M7165.042-531.817s14.544,6.99,17.964,10.357" transform="translate(-7165.042 537.524)"/></g></g></g><g class="v" transform="translate(-23.727 32.371)"><path class="w" d="M7.74,2.939a2,2,0,0,1,3.45,0l5.972,10.174a2,2,0,0,1-1.725,3.012H3.493a2,2,0,0,1-1.725-3.012Z" transform="matrix(0, 0.94, -0.996, -0.03, 1097.942, 430.674)"/><rect class="n" width="55.699" height="48.459" rx="12" transform="matrix(0.94, 0, -0.059, 0.985, 1062.991, 415.676)"/></g><path class="f" d="M-2009-15c133.653,0,242,108.347,242,242s-108.347,242-242,242-242-108.347-242-242S-2142.653-15-2009-15Z" transform="translate(3351.5 304)"/><g transform="matrix(0.985, 0.121, -0.134, 0.986, 147.257, -227.398)"><path class="g" d="M93.33,194.817h0a173.977,173.977,0,0,1-78.34,0l-.567-.131a16.977,16.977,0,0,1-13.1-14.938C-1.676,148.033-4.131,61.482,48.225,0h0c57.251,63.259,59.689,147.116,58.266,178.977A17.015,17.015,0,0,1,93.33,194.817Z" transform="translate(1289.422 349.617) rotate(30)"/><path class="h" d="M17.482,123.758c10.25-15.247,12-32.268,15.478-39.63,6.978-17.445,20.063-29.2,35.068-29.2C90.358,54.926,121,99.381,121,86.954,121,38.93,93.91,0,60.5,0S0,38.93,0,86.954a123.194,123.194,0,0,0,2.02,22.308C4.853,119.535,10.459,134.209,17.482,123.758Z" transform="translate(1201.917 384.342) rotate(30)"/><path class="h" d="M103.517,123.758c-10.25-15.247-12-32.268-15.48-39.63-6.976-17.445-20.061-29.2-35.066-29.2C30.641,54.926,0,99.381,0,86.954,0,38.93,27.087,0,60.5,0S121,38.93,121,86.954a123.194,123.194,0,0,1-2.02,22.308C116.146,119.535,110.538,134.209,103.517,123.758Z" transform="translate(1290.765 435.639) rotate(30)"/><path class="b" d="M97.64,273.654A209.726,209.726,0,0,1,16,226.522L0,211.592S53.3,67.22,177.668,21.122L185.134,8.19a5.147,5.147,0,1,1,3.585,2.07l-7.575,13.119c28.032,138.678-62.574,256.671-62.574,256.671Z" transform="translate(1191.132 279.482)"/><g class="ac" transform="matrix(1, -0.12, 0.14, 1, 715.82, 343.3)"><path class="i" d="M27.387,0A27.387,27.387,0,1,1,0,27.387,27.387,27.387,0,0,1,27.387,0Z" transform="matrix(0.79, 0.6, -0.61, 0.79, 582.76, 82.15)"/></g><g class="ab" transform="matrix(1, -0.12, 0.14, 1, 715.82, 343.3)"><path class="a" d="M21.38,0A21.38,21.38,0,1,1,0,21.38,21.38,21.38,0,0,1,21.38,0Z" transform="matrix(0.79, 0.6, -0.61, 0.79, 583.83, 90.51)"/></g><g class="j"><path class="k" d="M20.5,0A20.5,20.5,0,1,1,0,20.5,20.5,20.5,0,0,1,20.5,0Z" transform="translate(1299.835 383.552)"/></g><path class="h" d="M13.112,0c7.242,0,13.112,29.043,13.112,64.869s-5.87,64.869-13.112,64.869S0,100.7,0,64.869,5.87,0,13.112,0Z" transform="translate(1275.275 440.509) rotate(30)"/><g class="l" transform="translate(1191.132 279.482)"><ellipse class="m" cx="39.5" cy="40" rx="39.5" ry="40" transform="translate(138.214 -11.931)"/></g></g><g transform="matrix(0.94, 0, -0.059, 0.985, 182.746, 55.773)"><rect class="n" width="124" height="84" rx="12" transform="translate(1414 332)"/><g class="aa" transform="matrix(1.06, 0, 0.06, 1.02, 672.88, 143.94)"><rect class="h" width="17" height="42" rx="3" transform="matrix(0.94, 0, -0.06, 0.98, 756.36, 205.88)"/></g><g class="z" transform="matrix(1.06, 0, 0.06, 1.02, 672.88, 143.94)"><rect class="a" width="17" height="30" rx="3" transform="matrix(0.94, 0, -0.06, 0.98, 734.04, 217.7)"/></g><g class="y" transform="matrix(1.06, 0, 0.06, 1.02, 672.88, 143.94)"><rect class="a" width="17" height="21" rx="3" transform="matrix(0.94, 0, -0.06, 0.98, 711.89, 226.57)"/></g><circle class="o" cx="22" cy="22" r="22" transform="translate(1516 384)"/><g class="x" transform="matrix(1.06, 0, 0.06, 1.02, 672.88, 143.94)"><path class="a" d="M7,20V12H0L11.5,0,23,12H16v8Z" transform="matrix(0.94, 0, -0.06, 0.98, 787.64, 248.23)"/></g></g><g transform="matrix(0.94, 0, -0.059, 0.985, 154.14, 55.098)"><rect class="n" width="102.448" height="69.121" rx="12" transform="translate(1080.068 176.272)"/><line class="p" x2="26.46" transform="translate(1094.454 191.233)"/><line class="q" x2="16.537" transform="translate(1094.454 204.463)"/><g class="r" transform="translate(1080.068 176.272)"><g transform="translate(-1.705 39.587)"><path class="s" d="M7165.042-533.012s14.544,6.99,17.964,10.357,6.27,4,12.362-4.645,5.542-17.814,20.848-3.438,20.318-16.252,30.536-5.734c10.912,9.129,12.04,18.681,23.933,10.5" transform="translate(-7165.042 538.719)"/><path class="t" d="M7165.042-532.913s14.544,6.99,17.964,10.357,6.27,4,12.362-4.645,5.542-17.814,20.848-3.438" transform="translate(-7165.042 538.62)"/><path class="u" d="M7165.042-531.817s14.544,6.99,17.964,10.357" transform="translate(-7165.042 537.524)"/></g></g></g><g class="v" transform="translate(-23.727 32.371)"><path class="w" d="M7.74,2.939a2,2,0,0,1,3.45,0l5.972,10.174a2,2,0,0,1-1.725,3.012H3.493a2,2,0,0,1-1.725-3.012Z" transform="matrix(0, 0.94, -0.996, -0.03, 1097.942, 430.674)"/><rect class="n" width="55.699" height="48.459" rx="12" transform="matrix(0.94, 0, -0.059, 0.985, 1062.991, 415.676)"/></g></g></svg>